<?xml version="1.0" encoding="utf-8"?>
<!-- Generator: Adobe Illustrator 16.0.0, SVG Export Plug-In . SVG Version: 6.00 Build 0)  -->
<!DOCTYPE svg PUBLIC "-//W3C//DTD SVG 1.1//EN" "http://www.w3.org/Graphics/SVG/1.1/DTD/svg11.dtd">
<svg version="1.1" id="Layer_1" xmlns="http://www.w3.org/2000/svg" xmlns:xlink="http://www.w3.org/1999/xlink" x="0px" y="0px"
	 width="559.335px" height="94.822px" viewBox="18.623 374.022 559.335 94.822"
	 enable-background="new 18.623 374.022 559.335 94.822" xml:space="preserve">
<path fill="#128AC7" d="M91.488,413.951c0.081-4.229,0.976-7.481,2.846-9.759c0.976-0.895,2.196-1.708,3.66-2.358
	c1.545-0.651,3.009-0.976,4.473-0.976h17.403c7.645,0.082,11.548,4.229,11.71,12.605v25.698c-0.081,2.928-1.22,5.53-3.497,7.645
	c-2.196,2.277-4.879,3.415-7.97,3.497h-16.427v18.541H91.488V413.951z M119.381,416.391c-0.082-1.952-0.976-2.928-2.765-3.009
	h-9.515c-2.277,0.163-3.416,1.383-3.497,3.66v17.078c0.081,2.358,1.301,3.578,3.822,3.66h8.702c0.895,0,1.626-0.326,2.277-1.058
	c0.651-0.488,0.895-1.139,0.895-1.952v-18.378H119.381z"/>
<path fill="#128AC7" d="M169.395,416.066c0.082-1.871-1.057-2.765-3.253-2.684h-24.559v-12.523h27.649
	c8.051,0.163,12.117,3.985,12.28,11.71v26.186c-0.082,3.334-1.057,6.018-3.009,8.213c-2.033,2.277-4.717,3.416-7.97,3.416h-16.671
	c-8.132-0.081-12.28-3.741-12.361-11.142v-10.084c0.082-7.725,3.985-11.629,11.792-11.792h16.183v-1.301H169.395z M153.537,435.258
	c0,0.731,0.326,1.301,0.976,1.708c0.569,0.487,1.301,0.813,2.196,0.813h9.352c2.114,0,3.253-0.813,3.253-2.44v-3.497
	c0-1.87-1.139-2.846-3.334-2.846h-9.271c-1.22,0-2.033,0.162-2.521,0.569c-0.407,0.487-0.651,1.382-0.651,2.684V435.258
	L153.537,435.258z"/>
<path fill="#128AC7" d="M215.667,456.32c0.976-0.081,1.789-0.406,2.44-1.058c0.65-0.569,0.976-1.22,0.976-2.032v-1.139v-1.789
	h-15.614c-2.033,0-3.66-0.244-4.879-0.813c-1.301-0.488-2.521-1.383-3.822-2.603c-1.22-1.301-2.114-2.684-2.602-4.147
	c-0.569-1.301-0.813-3.009-0.813-5.042v-36.839h12.199v32.936c0,2.684,1.057,3.985,3.253,3.985h8.62
	c1.057,0,1.952-0.326,2.684-1.058c0.732-0.569,1.057-1.301,1.057-2.114v-1.383v-32.529h12.117v54.486
	c-0.082,4.066-1.139,7.238-3.09,9.678c-2.033,2.439-4.798,3.74-8.295,3.74h-28.463v-12.523h24.234V456.32z"/>
<path fill="#128AC7" d="M240.796,437.779h21.713c1.952-0.082,3.009-0.896,3.09-2.358v-1.139c0-0.325-0.082-0.651-0.325-1.058
	c-0.488-0.976-1.057-1.383-1.789-1.383h-1.301h-9.434c-3.171-0.081-5.937-1.138-8.213-3.252c-2.277-1.952-3.497-4.392-3.578-7.238
	v-9.433c0.163-7.319,4.066-10.979,11.873-11.141h25.21v12.523h-21.307c-2.521,0-3.741,0.732-3.741,2.277v1.301
	c0,1.626,1.301,2.358,3.822,2.358h10.734c2.846,0.081,5.286,1.139,7.319,3.334c2.033,2.114,3.09,4.717,3.171,7.645v9.108
	c-0.082,2.602-1.22,5.123-3.497,7.644c-1.138,1.221-2.277,2.115-3.416,2.603c-1.138,0.488-2.765,0.65-4.798,0.65h-25.454v-12.441
	H240.796z"/>
<path fill="#128AC7" d="M314.636,416.066c0.082-1.871-1.057-2.765-3.252-2.684h-24.56v-12.523h27.65
	c8.051,0.163,12.117,3.985,12.279,11.71v26.186c-0.082,3.334-1.057,6.018-3.01,8.213c-2.031,2.277-4.715,3.416-7.969,3.416h-16.672
	c-8.131-0.081-12.279-3.741-12.36-11.142v-10.084c0.081-7.725,3.984-11.629,11.792-11.792h16.184v-1.301H314.636z M298.779,435.258
	c0,0.731,0.324,1.301,0.977,1.708c0.568,0.487,1.301,0.813,2.195,0.813h9.352c2.115,0,3.172-0.813,3.254-2.44v-3.497
	c0-1.87-1.139-2.846-3.336-2.846h-9.27c-1.221,0-2.033,0.162-2.521,0.569c-0.406,0.487-0.65,1.382-0.65,2.684V435.258
	L298.779,435.258z"/>
<path fill="#128AC7" d="M336.593,393.702c0.082-3.416,1.301-6.099,3.74-8.132c2.359-2.033,5.449-3.09,9.354-3.171h7.725v12.117
	h-4.717c-2.602,0.082-3.902,1.301-3.902,3.66v2.684h8.619v12.523h-8.619v36.921h-12.199V393.702L336.593,393.702z"/>
<path fill="#128AC7" d="M376.929,433.469v0.813c0,0.976,0.244,1.789,0.814,2.358c0.406,0.731,0.895,1.139,1.545,1.139h1.545h23.502
	v12.523h-26.592c-2.441,0-4.311-0.244-5.693-0.65c-1.465-0.488-2.766-1.302-3.904-2.358c-1.301-1.302-2.275-2.685-2.684-4.066
	c-0.486-1.464-0.73-3.334-0.73-5.774l-0.082-25.047c0.162-7.563,4.066-11.385,11.873-11.548h16.428
	c7.563,0.163,11.467,4.147,11.547,11.955v9.921L376.929,433.469z M392.056,415.822v-0.325c0-0.651-0.244-1.22-0.814-1.626
	c-0.568-0.407-1.301-0.569-2.113-0.569h-8.459c-1.057,0-1.951,0.325-2.684,0.895c-0.813,0.569-1.301,1.301-1.301,2.277v5.042
	L392.056,415.822z"/>
<path fill="#128AC7" d="M430.195,450.303c-1.869,0-3.496-0.163-5.041-0.488c-1.627-0.244-3.172-0.976-4.799-2.277
	c-1.707-1.464-2.846-3.09-3.496-4.879s-0.977-3.741-0.977-6.018v-23.34c-0.08-1.871,0.164-3.578,0.57-5.042s1.301-2.846,2.602-4.229
	c1.465-1.463,3.01-2.439,4.555-2.927c1.545-0.407,3.252-0.569,5.205-0.569h18.703v2.928H429.3c-3.252,0-5.773,0.65-7.563,1.952
	c-1.869,1.464-2.846,3.903-2.846,7.481v23.339c0,1.627,0.244,3.253,0.732,4.798c0.486,1.546,1.381,2.847,2.602,3.985
	c1.301,0.976,2.684,1.626,3.904,1.87c1.381,0.325,2.764,0.407,4.309,0.407h17.404v2.927h-17.648V450.303z"/>
<path fill="#128AC7" d="M498.425,436.803c0,1.871-0.162,3.497-0.406,4.961c-0.406,1.545-1.221,3.09-2.439,4.554
	c-2.521,2.684-5.693,3.985-9.516,3.903h-14.557c-3.74,0-6.83-1.138-9.189-3.415c-2.439-2.195-3.66-5.286-3.66-9.271v-7.563
	c0.164-8.458,4.393-12.849,12.688-13.011h24.234v-3.334c0-2.684-0.814-5.123-2.359-7.156c-0.975-1.301-2.195-2.196-3.496-2.684
	c-1.383-0.325-2.848-0.569-4.555-0.569h-26.43v-2.928h25.047c2.277,0,4.393,0.163,6.262,0.488c0.977,0.163,1.871,0.569,2.684,1.139
	c0.895,0.488,1.627,1.301,2.439,2.277c2.277,2.928,3.336,6.262,3.336,10.003v22.607H498.425z M495.498,419.969h-24.479
	c-2.928,0.081-5.205,0.976-6.912,2.683c-1.707,1.79-2.521,4.229-2.521,7.319v7.481c0,1.464,0.164,2.766,0.488,3.985
	c0.326,1.22,1.057,2.358,2.277,3.334c2.115,1.789,4.473,2.603,6.994,2.603h14.801c6.18-0.081,9.352-3.334,9.352-9.84V419.969z"/>
<path fill="#128AC7" d="M525.75,403.461c-6.75,0.163-10.166,3.822-10.002,11.141v35.701h-2.928v-35.701
	c-0.164-9.352,4.311-14.069,13.418-14.069h3.252v2.928H525.75z"/>
<path fill="#128AC7" d="M577.958,436.478c-0.244,9.434-5.285,14.069-14.963,13.825h-10.816c-2.277,0-4.311-0.163-6.1-0.569
	c-1.869-0.488-3.658-1.627-5.367-3.416c-1.301-1.626-2.113-3.171-2.439-4.798c-0.406-1.626-0.65-3.497-0.568-5.448v-21.307
	c0.162-9.596,4.961-14.313,14.475-14.231h22.852V384.35h2.928V436.478L577.958,436.478z M575.113,403.461h-23.096
	c-1.627,0-3.172,0.163-4.473,0.569c-1.383,0.326-2.766,1.139-4.066,2.521c-1.221,1.301-1.951,2.521-2.277,3.741
	c-0.406,1.301-0.65,2.765-0.568,4.554v22.771c0,3.822,1.057,6.343,3.334,7.726c1.057,0.65,2.277,1.139,3.658,1.464
	c1.383,0.325,2.848,0.569,4.473,0.569h10.084c3.742,0,6.832-0.895,9.189-2.603c2.359-1.626,3.578-4.473,3.66-8.539v-32.772H575.113z
	"/>
<g>
	<path fill="#E00D1D" d="M23.828,398.988c0.976-0.406,1.952-0.732,2.846-0.976c1.789-8.376,9.271-14.719,18.135-14.719
		c8.945,0,16.346,6.343,18.135,14.719c2.765,0.488,4.961,1.626,6.75,3.253c0.081-1.626,0-3.172-0.163-4.635
		c-1.139-12.687-11.792-22.608-24.722-22.608c-13.337,0-24.234,10.572-24.803,23.828c-0.082,1.138-0.082,2.358-0.082,3.578
		C21.063,400.452,22.364,399.639,23.828,398.988z"/>
	<path fill="#E00D1D" d="M59.284,400.858H29.602c-1.464,0-2.928,0.325-4.473,0.976c-1.463,0.65-2.684,1.382-3.659,2.358
		c-1.871,2.196-2.765,5.449-2.846,9.759v23.259c0.081,4.31,0.976,7.481,2.846,9.758c0.976,0.977,2.196,1.708,3.659,2.358
		c1.545,0.651,3.009,0.977,4.473,0.977h29.764c7.645-0.082,11.629-4.311,11.71-12.605v-24.234
		C70.913,405.087,67.01,400.94,59.284,400.858z"/>
</g>
</svg>
